<svg xmlns="http://www.w3.org/2000/svg" width="40" height="40" fill="none"><path fill="#0CA717" fill-rule="evenodd" d="M24.055 27.035a21.415 21.415 0 0 1-.27-.86c-.223-.762-1.046-1.2-1.782-.903a2 2 0 0 1-2.748-1.855v-6.07a2 2 0 0 1 2.748-1.855c.69.278 1.46-.14 1.653-.859.118-.443.252-.884.4-1.32l.274-.815c.202-.595.432-1.178.688-1.746.528-1.166.027-2.6-1.18-3.023l-3.4-1.19a.688.688 0 0 0-.772.222l-.469.6a20.278 20.278 0 0 0-4.282 12.464v1.114c0 4.515 1.507 8.902 4.282 12.464l.469.6c.181.234.493.32.772.222l3.564-1.247c1.225-.428 1.72-1.893 1.163-3.065a19.022 19.022 0 0 1-.834-2.064l-.276-.814Z" clip-rule="evenodd"/><path fill="#0CA717" d="M22.825 26.455c.088.302.182.602.283.9l1.895-.64a20.436 20.436 0 0 1-.259-.82l-1.92.56Zm-4.57-3.038c0 2.127 2.151 3.578 4.123 2.782l-.749-1.854a1 1 0 0 1-1.375-.928h-2Zm0-.035v.035h2v-.035h-2Zm0-6v6h2v-6h-2Zm0-.035v.035h2v-.035h-2Zm4.123-2.782c-1.972-.796-4.123.655-4.123 2.782h2a1 1 0 0 1 1.374-.928l.749-1.854Zm.73-1.573c-.155.458-.294.919-.418 1.383l1.932.517c.113-.423.24-.843.38-1.26l-1.894-.64Zm.275-.814-.275.814 1.895.64.275-.813-1.895-.64Zm.724-1.838c-.27.598-.512 1.212-.724 1.838l1.895.64c.19-.564.408-1.116.652-1.654l-1.823-.824Zm.06-3.555-3.4-1.19-.66 1.888 3.4 1.19.66-1.888Zm-4.18 1.191.468-.6-1.578-1.23-.468.601 1.577 1.23Zm-4.072 11.849c0-4.293 1.433-8.463 4.071-11.849l-1.578-1.229a21.278 21.278 0 0 0-4.493 13.078h2Zm0 1.114v-1.114h-2v1.114h2Zm4.071 11.849a19.278 19.278 0 0 1-4.07-11.849h-2c0 4.738 1.58 9.34 4.492 13.078l1.578-1.23Zm.468.6-.468-.6-1.578 1.23.469.6 1.578-1.23Zm.314 1.781 3.565-1.247-.66-1.888-3.565 1.247.66 1.888Zm2.615-7c.251.744.545 1.47.879 2.172l1.807-.857a18.04 18.04 0 0 1-.791-1.955l-1.895.64Zm-.275-.814.275.815 1.895-.64-.275-.815-1.895.64Zm1.225 6.567c1.868-.654 2.507-2.811 1.736-4.438l-1.807.857c.34.718-.01 1.49-.59 1.693l.66 1.888Zm-2.704-17.503c1.288.52 2.657-.273 2.993-1.527l-1.932-.517a.282.282 0 0 1-.14.177.196.196 0 0 1-.172.013l-.749 1.854Zm-2.752 18.2a1.689 1.689 0 0 0 1.892.55l-.661-1.888a.312.312 0 0 1 .346.108l-1.577 1.23Zm1.89-29.024a1.688 1.688 0 0 0-1.89.55l1.578 1.23a.312.312 0 0 1-.348.108l.66-1.888Zm5.163 5.569c.732-1.62.08-3.734-1.762-4.379l-.66 1.888c.573.2.921.955.6 1.667l1.822.824Zm-1.186 14.73c-.374-1.282-1.787-2.086-3.115-1.55l.749 1.855c.143-.058.377.016.447.256l1.92-.56Z"/></svg>