<svg xmlns="http://www.w3.org/2000/svg" width="40" height="40" fill="none"><path fill="#0CA717" fill-rule="evenodd" d="M20 5.884c5.523 0 10 4.477 10 10v.602c0 2.21-.69 4.364-1.975 6.163L20.02 33.856a.024.024 0 0 1-.04 0L11.975 22.65A10.602 10.602 0 0 1 10 16.486v-.602c0-5.523 4.477-10 10-10Zm4.392 9.057a4.505 4.505 0 1 0-8.784 2.005 4.505 4.505 0 0 0 8.784-2.005Z" clip-rule="evenodd"/><path fill="#0CA717" d="M30.75 15.884c0-5.937-4.813-10.75-10.75-10.75v1.5a9.25 9.25 0 0 1 9.25 9.25h1.5Zm0 .602v-.602h-1.5v.602h1.5Zm-2.114 6.598a11.353 11.353 0 0 0 2.114-6.598h-1.5a9.852 9.852 0 0 1-1.835 5.727l1.22.871ZM20.63 34.292l8.006-11.208-1.221-.871L19.41 33.42l1.22.872Zm-1.26 0a.774.774 0 0 0 1.26 0l-1.22-.872a.726.726 0 0 1 1.18 0l-1.22.872Zm-8.006-11.208 8.006 11.208 1.22-.872-8.005-11.207-1.22.871ZM9.25 16.486c0 2.366.74 4.673 2.114 6.598l1.221-.871a9.852 9.852 0 0 1-1.835-5.727h-1.5Zm0-.602v.602h1.5v-.602h-1.5ZM20 5.134c-5.937 0-10.75 4.813-10.75 10.75h1.5A9.25 9.25 0 0 1 20 6.634v-1.5Zm1.63 7.426a3.755 3.755 0 0 1 2.03 2.548l1.463-.334a5.255 5.255 0 0 0-2.843-3.565l-.65 1.351Zm-3.26 0a3.755 3.755 0 0 1 3.26 0l.65-1.351a5.255 5.255 0 0 0-4.56 0l.65 1.351Zm-2.03 2.548a3.755 3.755 0 0 1 2.03-2.548l-.65-1.351a5.255 5.255 0 0 0-2.843 3.565l1.462.334Zm.724 3.177a3.755 3.755 0 0 1-.725-3.177l-1.462-.334a5.255 5.255 0 0 0 1.015 4.446l1.172-.935ZM20 19.698a3.755 3.755 0 0 1-2.936-1.413l-1.172.935A5.255 5.255 0 0 0 20 21.198v-1.5Zm2.936-1.413A3.755 3.755 0 0 1 20 19.698v1.5c1.6 0 3.111-.728 4.108-1.978l-1.172-.935Zm.725-3.177a3.755 3.755 0 0 1-.725 3.177l1.172.935a5.255 5.255 0 0 0 1.015-4.446l-1.462.334Z"/></svg>